<?xml version="1.0" encoding="UTF-8"?><svg id="Layer_1" xmlns="http://www.w3.org/2000/svg" viewBox="0 0 237.53 262.26"><defs><style>.cls-1{fill:#fff;}.cls-2{fill:#f7f7f7;}</style></defs><path class="cls-2" d="M177.59,126.26c0,9.69-2.53,15.6-7.58,17.71-5.05,2.11-11.99.45-20.63-4.36-7.67-4.27-15.98-11.94-20.63-19.45-4.89-7.91-7.58-16.77-7.58-26.46V18.42c0-9.57,2.53-15.41,7.58-17.52,5.05-2.11,12.05-.41,20.8,4.46,7.63,4.25,15.91,11.84,20.54,19.31,4.84,7.82,7.49,16.63,7.49,26.32v75.27ZM151.15,31.67c0-2.21-.59-3.65-1.76-4.33-1.18-.68-1.76.09-1.76,2.29v83.37c0,2.33.59,3.84,1.76,4.52,1.17.68,1.76-.15,1.76-2.48V31.67Z"/><path class="cls-2" d="M237.53,158.1c0,10.06-2.62,16-7.84,17.83-5.23,1.83-12.02.33-20.36-4.49-9.4-5.43-18.8-10.86-28.21-16.29V26.34c9.4,5.43,18.8,10.86,28.21,16.29,4.11,2.37,7.9,5.15,11.37,8.31,3.47,3.17,6.43,6.66,8.9,10.48,2.47,3.82,4.41,8,5.82,12.56,1.41,4.56,2.12,9.35,2.12,14.38v69.75ZM211.09,69.03c0-2.21-.59-3.65-1.76-4.33-.71-.41-1.06-.61-1.76-1.02v84.66c.71.41,1.06.61,1.76,1.02,1.17.68,1.76-.15,1.76-2.48v-77.85Z"/><path class="cls-1" d="M47.48,53.57c-6.66,3.85-9.99,5.77-16.65,9.61v32.39c5.34-3.09,8.02-4.63,13.36-7.71v22.09c-5.34,3.09-8.02,4.63-13.36,7.71v52.27c-10.28,5.93-20.56,11.87-30.83,17.8V58.9c15.83-9.14,31.66-18.28,47.48-27.42v22.08Z"/><path class="cls-1" d="M116.35,93.69c.3,8.98-3.66,20.1-8.84,27.19-6.29,8.6-14.68,16.05-24.05,21.43-10.13,5.82-18.16,7.97-24.05,6.34-5.89-1.63-8.84-7.29-8.84-16.98V56.39c-.29-8.93,3.69-19.97,8.84-27,6.34-8.66,14.83-16.13,24.26-21.55C93.79,2.02,101.79-.14,107.61,1.47c5.82,1.61,8.74,7.26,8.74,16.95v75.27ZM85.51,32.17c0-2.21-.69-2.92-2.05-2.13-1.37.79-2.06,2.29-2.06,4.5v83.37c0,2.33.68,3.1,2.06,2.31,1.37-.79,2.05-2.35,2.05-4.68V32.17Z"/><path class="cls-1" d="M40.19,215.12c-7.09-4.09-10.63-6.14-17.72-10.23,9.2-5.36,13.79-8.05,22.99-13.41l-2.13-1.23c-9.29,5.31-13.94,7.96-23.23,13.27-7.09-4.09-10.63-6.14-17.72-10.23,39.59-20.08,79.18-40.17,118.77-60.25,9.35,5.4,14.03,8.1,23.39,13.5-34.79,22.86-69.57,45.72-104.36,68.57ZM64.47,180.37c8.58-5.05,17.16-10.09,25.74-15.14,4.45-2.73,6.67-4.1,11.12-6.83-.28-.16-.42-.25-.71-.41-4.73,2.57-7.1,3.85-11.83,6.42-8.74,4.95-17.48,9.91-26.22,14.86.76.44,1.13.65,1.89,1.09Z"/><path class="cls-1" d="M155.83,193.36c-4.78,2.76-9.58,4.62-14.4,5.58-4.82.96-9.28.99-13.39.09-.26.15-.38.22-.64.37,1.74,2.36,1.71,4.95-.1,7.76-1.81,2.82-5.11,5.61-9.89,8.37-5.04,2.91-7.55,4.36-12.59,7.27-8.71,5.03-16.92,7.74-24.62,8.14-7.7.4-14.35-1.01-19.94-4.24-7.56-4.36-11.34-6.55-18.9-10.91,37.19-21.47,74.38-42.94,111.57-64.41,7.56,4.36,11.34,6.55,18.9,10.91,2.76,1.59,4.79,3.35,6.1,5.27,1.31,1.92,1.76,3.96,1.34,6.11-.42,2.15-1.78,4.44-4.07,6.85-2.3,2.42-5.62,4.88-9.98,7.4-3.76,2.17-5.64,3.26-9.4,5.43ZM151.02,175.68c1.91-1.1,2.47-1.88,1.69-2.34-.47-.27-.71-.41-1.18-.68-8.5,4.91-17,9.82-25.5,14.72.47.27.71.41,1.18.68.79.45,2.19.1,4.21-1.07,7.84-4.53,11.76-6.79,19.6-11.32ZM106.39,201.44c1.91-1.1,2.47-1.88,1.69-2.34-.47-.27-.71-.41-1.18-.68-9.56,5.52-19.13,11.04-28.69,16.56.47.27.71.41,1.18.68.79.45,2.19.1,4.21-1.07,9.12-5.26,13.67-7.9,22.79-13.16Z"/><path class="cls-1" d="M142.01,247.03c-8.4,4.85-16.46,7.55-24.2,8.11-7.74.56-14.53-.84-20.35-4.21-5.83-3.36-8.25-7.28-7.29-11.75.97-4.47,5.65-9.13,14.05-13.98,21.73-12.55,43.46-25.09,65.19-37.64,8.29-4.79,16.3-7.46,24.05-8.02,7.74-.56,14.57.86,20.47,4.27,5.83,3.36,8.26,7.26,7.31,11.67-.96,4.41-5.63,9.05-14.03,13.89-21.73,12.55-43.46,25.09-65.19,37.64ZM192.98,197.14c1.91-1.1,2.47-1.88,1.69-2.34-.79-.45-2.14-.13-4.05.97-24.07,13.9-48.13,27.79-72.2,41.69-2.02,1.17-2.64,1.98-1.85,2.43.79.45,2.19.1,4.21-1.07,24.07-13.9,48.13-27.79,72.2-41.69Z"/></svg>